<?xml version="1.0" standalone="no"?>
<!DOCTYPE svg PUBLIC "-//W3C//DTD SVG 1.1//EN" "http://www.w3.org/Graphics/SVG/1.1/DTD/svg11.dtd" >
<svg xmlns="http://www.w3.org/2000/svg">
<metadata>Generated by IcoMoon</metadata>
<defs>
<font id="azure" horiz-adv-x="1024">
<font-face units-per-em="1024" ascent="896" descent="-128" />
<missing-glyph horiz-adv-x="1024" />
<glyph unicode="&#x20;" horiz-adv-x="0" d="" />
<glyph unicode="&#xe0db;" glyph-name="quick-view" d="M592 498h-128v128q0 14-9 23t-22 9-23-9-10-23v-128h-128q-30 0-30-22 0-14 9-28t21-14h128v-128q0-12 10-22t23-10 22 10 9 22v128h128q14 0 23 10t9 23-9 22-23 9zM1014-72l-264 260q112 122 112 284 0 176-126 300t-305 124-305-124-126-300 126-300 304-124q154 0 272 94l266-260q22-24 46 0 10 10 10 23t-10 23zM431 114q-151 0-258 105t-107 253 107 253 258 105 258-105 107-253-107-253-258-105z" />
<glyph unicode="&#xe900;" glyph-name="menu" d="M0 716.8h1024v-102.4h-1024v102.4zM0 409.6h1024v-102.4h-1024v102.4zM0 102.4h1024v-102.4h-1024v102.4z" />
<glyph unicode="&#xe901;" glyph-name="home" horiz-adv-x="951" d="M782.35 314.561v-255.765c0-18.649-15.452-34.102-34.102-34.102h-204.611v204.611h-136.408v-204.611h-204.611c-18.649 0-34.102 15.452-34.102 34.102v255.765c0 1.066 0.532 2.132 0.532 3.197l306.384 252.567 306.384-252.567c0.532-1.066 0.532-2.132 0.532-3.197zM901.174 351.327l-33.037-39.431c-2.664-3.197-6.927-5.328-11.19-5.862h-1.598c-4.262 0-7.992 1.066-11.19 3.73l-368.728 307.45-368.728-307.45c-3.73-2.664-7.992-4.262-12.788-3.73-4.262 0.532-8.526 2.664-11.19 5.862l-33.037 39.431c-5.862 6.927-4.796 18.117 2.132 23.978l383.114 319.172c22.379 18.649 58.613 18.649 80.992 0l130.014-108.7v103.905c0 9.591 7.46 17.051 17.051 17.051h102.306c9.591 0 17.051-7.46 17.051-17.051v-217.4l116.693-96.977c6.927-5.862 7.992-17.051 2.132-23.978z" />
<glyph unicode="&#xe902;" glyph-name="pinterest" horiz-adv-x="731" d="M0 545.714c0 210.857 193.143 341.143 388.571 341.143 179.429 0 342.857-123.429 342.857-312.571 0-177.714-90.857-374.857-293.143-374.857-48 0-108.571 24-132 68.571-43.429-172-40-197.714-136-329.143l-8-2.857-5.143 5.714c-3.429 36-8.571 71.429-8.571 107.429 0 116.571 53.714 285.143 80 398.286-14.286 29.143-18.286 64.571-18.286 96.571 0 57.714 40 130.857 105.143 130.857 48 0 73.714-36.571 73.714-81.714 0-74.286-50.286-144-50.286-216 0-49.143 40.571-83.429 88-83.429 131.429 0 172 189.714 172 290.857 0 135.429-96 209.143-225.714 209.143-150.857 0-267.429-108.571-267.429-261.714 0-73.714 45.143-111.429 45.143-129.143 0-14.857-10.857-67.429-29.714-67.429-2.857 0-6.857 1.143-9.714 1.714-81.714 24.571-111.429 133.714-111.429 208.571z" />
<glyph unicode="&#xe903;" glyph-name="vk" horiz-adv-x="1119" d="M1095.429 589.714c8.571-23.429-18.286-78.286-85.714-168-110.857-147.429-122.857-133.714-31.429-218.857 88-81.714 106.286-121.143 109.143-126.286 0 0 36.571-64-40.571-64.571l-146.286-2.286c-31.429-6.286-73.143 22.286-73.143 22.286-54.857 37.714-106.286 135.429-146.286 122.857 0 0-41.143-13.143-40-101.143 0.571-18.857-8.571-29.143-8.571-29.143s-10.286-10.857-30.286-12.571h-65.714c-144.571-9.143-272 124-272 124s-139.429 144-261.714 431.429c-8 18.857 0.571 28 0.571 28s8.571 10.857 32.571 10.857l156.571 1.143c14.857-2.286 25.143-10.286 25.143-10.286s9.143-6.286 13.714-18.286c25.714-64 58.857-122.286 58.857-122.286 57.143-117.714 96-137.714 118.286-125.714 0 0 29.143 17.714 22.857 160-2.286 51.429-16.571 74.857-16.571 74.857-13.143 17.714-37.714 22.857-48.571 24.571-8.571 1.143 5.714 21.714 24.571 30.857 28 13.714 77.714 14.286 136.571 13.714 46.286-0.571 59.429-3.429 77.143-7.429 54.286-13.143 36-63.429 36-184.571 0-38.857-7.429-93.143 20.571-110.857 12-8 41.714-1.143 114.857 123.429 0 0 34.286 59.429 61.143 128.571 4.571 12.571 14.286 17.714 14.286 17.714s9.143 5.143 21.714 3.429l164.571 1.143c49.714 6.286 57.714-16.571 57.714-16.571z" />
<glyph unicode="&#xe904;" glyph-name="click" d="M733.131-104.729c-38.137 0-77.688 8.475-115.826 26.837l-398.329 187.865c-24.013 11.3-42.376 31.076-50.85 56.501s-7.063 52.262 4.237 76.275c1.412 4.237 5.649 8.475 9.889 9.889 40.961 25.425 122.887 36.725 169.501 15.536l-183.627 295.214c-14.124 22.601-18.363 49.438-12.712 74.863s22.601 48.026 45.2 62.15v0c46.612 28.249 108.763 14.124 137.015-32.488l81.926-132.776c7.063 7.063 14.124 14.124 22.601 18.363 29.664 18.363 66.388 19.775 96.050 4.237 8.475 15.536 19.775 28.249 35.313 38.137 29.664 18.363 66.388 19.775 96.050 4.237 8.475 15.536 19.775 28.249 35.313 38.137 24.013 14.124 52.262 18.363 79.1 11.3 25.425-7.063 46.612-22.601 59.325-45.2l145.488-265.553c70.625-129.95 25.425-271.203-52.262-353.129-57.913-57.913-129.95-90.401-203.401-90.401zM213.327 214.5c-2.824-9.889-2.824-21.187 1.412-31.076 4.237-12.712 14.124-22.601 25.425-28.249l398.329-187.865c107.351-50.85 206.227-4.237 262.726 55.089 64.976 69.213 104.525 187.865 45.2 295.214l-146.902 266.965c-5.649 9.889-15.536 18.363-28.249 21.187-14.124 4.237-28.249 1.412-40.961-5.649-14.124-8.475-22.601-22.601-24.013-39.549-1.412-9.889-7.063-18.363-16.95-22.601-9.889-2.824-19.775 0-26.837 7.063-15.536 18.363-43.788 22.601-64.976 9.889-14.124-8.475-22.601-22.601-24.013-39.549-1.412-9.889-7.063-18.363-16.95-22.601-9.889-2.824-19.775 0-26.837 7.063-15.536 18.363-43.788 22.601-64.976 9.889-11.3-7.063-19.775-18.363-22.601-32.488-2.824-9.889-9.889-16.95-19.775-19.775-9.889-1.412-19.775 2.824-25.425 11.3l-104.525 169.501c-14.124 24.013-45.2 31.076-69.213 15.536-11.3-7.063-19.775-18.363-22.601-31.076s-1.412-26.837 5.649-38.137l227.414-367.253c5.649-9.889 4.237-21.187-2.824-29.664s-19.775-11.3-29.664-5.649l-70.625 40.961c-26.837 12.712-84.75 7.063-117.238-8.475zM169.538 399.539c-2.824 0-5.649 0-8.475 1.412-96.050 33.9-161.026 125.714-161.026 228.826 0 134.188 108.763 242.952 242.952 242.952 118.651 0 221.765-88.989 240.127-204.813 1.412-14.124-7.063-26.837-21.187-28.249s-26.837 7.063-28.249 21.187c-14.124 93.226-96.050 162.44-190.689 162.44-105.939 0-192.101-86.163-192.101-192.101 0-81.926 50.85-153.963 128.538-182.215 12.712-4.237 19.775-18.363 15.536-32.488-5.649-9.889-15.536-16.95-25.425-16.95z" />
<glyph unicode="&#xe905;" glyph-name="tag-cord" d="M895.349 575.152v-191.758l-489.787-489.787c-28.666-28.666-75.076-28.811-103.611-0.276l-262.699 262.699c-28.492 28.492-28.411 74.924 0.276 103.611l489.787 489.787h292.841c34.777 0 63.549-23.913 71.198-56.083-11.656-7.21-25.972-12.891-43.068-16.283-149.334-29.63-203.028-59.212-211.358-126.119-0.026-0.214 0.056-0.432 0.241-0.657-0.029-0.722-0.042-1.448-0.042-2.177 0-30.324 24.581-54.905 54.905-54.905 25.087 0 46.244 16.825 52.803 39.806 0.27-0.006 0.424 0.002 0.456 0.024 14.416 9.92 53.268 22.209 124.366 36.316 8.193 1.625 16.091 3.568 23.693 5.802v0 0zM864.533 605.254c159.871 31.721 182.375 203.34 77.16 269.479-84.369 53.035-229.36 0.56-229.36-88.702h36.603c0 56.804 110.882 96.934 173.277 57.712 78.18-49.144 61.342-177.556-64.804-202.586-149.226-29.609-181.68-51.94-181.68-111.35h36.603c0 36.353 18.164 48.852 152.2 75.447v0z" />
<glyph unicode="&#xe906;" glyph-name="facebook" d="M608 704h160v192h-160c-123.514 0-224-100.486-224-224v-96h-128v-192h128v-512h192v512h160l32 192h-192v96c0 17.346 14.654 32 32 32z" />
<glyph unicode="&#xe907;" glyph-name="twitter" d="M1024 669.6c-37.6-16.8-78.2-28-120.6-33 43.4 26 76.6 67.2 92.4 116.2-40.6-24-85.6-41.6-133.4-51-38.4 40.8-93 66.2-153.4 66.2-116 0-210-94-210-210 0-16.4 1.8-32.4 5.4-47.8-174.6 8.8-329.4 92.4-433 219.6-18-31-28.4-67.2-28.4-105.6 0-72.8 37-137.2 93.4-174.8-34.4 1-66.8 10.6-95.2 26.2 0-0.8 0-1.8 0-2.6 0-101.8 72.4-186.8 168.6-206-17.6-4.8-36.2-7.4-55.4-7.4-13.6 0-26.6 1.4-39.6 3.8 26.8-83.4 104.4-144.2 196.2-146-72-56.4-162.4-90-261-90-17 0-33.6 1-50.2 3 93.2-59.8 203.6-94.4 322.2-94.4 386.4 0 597.8 320.2 597.8 597.8 0 9.2-0.2 18.2-0.6 27.2 41 29.4 76.6 66.4 104.8 108.6z" />
<glyph unicode="&#xe908;" glyph-name="cross" d="M810.667 725.333q18.333 0 30.5-12.167t12.167-30.5q0-18-12.333-30.333l-268.667-268.333 268.667-268.333q12.333-12.333 12.333-30.333 0-18.333-12.167-30.5t-30.5-12.167q-18 0-30.333 12.333l-268.333 268.667-268.333-268.667q-12.333-12.333-30.333-12.333-18.333 0-30.5 12.167t-12.167 30.5q0 18 12.333 30.333l268.667 268.333-268.667 268.333q-12.333 12.333-12.333 30.333 0 18.333 12.167 30.5t30.5 12.167q18 0 30.333-12.333l268.333-268.667 268.333 268.667q12.333 12.333 30.333 12.333z" />
<glyph unicode="&#xe909;" glyph-name="compare" d="M406.382 218.313l31.341 50.563c7.522 12.118 3.761 27.789-8.357 35.31-11.909 7.522-27.789 3.761-35.31-8.357l-31.341-50.563c-56.831-91.723-137.898-144.375-222.727-144.375h-114.497c-14.208 0-25.49-11.492-25.49-25.699s11.492-25.699 25.49-25.699h114.706c103.006 0.418 199.953 61.845 266.186 168.821zM1016.269 710.568l-124.109 124.317c-10.029 10.029-26.117 10.029-36.146 0s-10.029-26.117 0-36.146l80.65-80.65c-0.209 0-0.209 0-0.418 0h-118.467c-102.797 0-199.953-61.427-266.186-168.403l-19.222-31.132c-7.522-12.118-3.761-27.789 8.357-35.31 4.179-2.507 8.775-3.761 13.372-3.761 8.566 0 16.924 4.388 21.729 12.118l19.222 31.132c56.831 91.723 137.898 144.166 222.727 144.166h118.258c0.209 0 0.209 0 0.418 0l-80.65-80.65c-10.029-10.029-10.029-26.117 0-36.146 5.014-5.014 11.492-7.522 18.178-7.522s13.163 2.507 18.178 7.522l124.317 124.317c9.82 10.029 9.82 26.326-0.209 36.146zM961.737 692.182c0 0.209 0 0.209 0 0.418s0 0.209 0 0.418l0.418-0.418-0.418-0.418zM855.806-66.886c5.014-5.014 11.492-7.522 18.178-7.522s13.163 2.507 18.178 7.522l124.317 124.317c10.029 10.029 10.029 26.117 0 36.146l-124.317 124.109c-10.029 10.029-26.117 10.029-36.146 0s-10.029-26.117 0-36.146l80.65-80.65c-0.209 0-0.209 0-0.418 0h-114.706c-84.619 0-165.896 52.652-222.727 144.375l-188.461 304.421c-66.233 107.185-163.389 168.403-266.186 168.403h-118.676c-14.208 0-25.49-11.492-25.49-25.699s11.492-25.699 25.49-25.699h118.467c84.619 0 165.896-52.652 222.727-144.166l188.461-304.421c66.233-107.185 163.389-168.612 266.186-168.612h114.706c0.209 0 0.209 0 0.418 0l-80.65-80.65c-9.82-9.611-9.82-25.699 0-35.728zM961.737 75.818l0.418-0.418-0.418-0.418c0 0.209 0 0.209 0 0.418s0 0.209 0 0.418z" />
<glyph unicode="&#xe90a;" glyph-name="tag" d="M1024.607 469.435l-571.597-571.597c-33.454-33.454-87.616-33.624-120.917-0.322l-306.579 306.579c-33.251 33.251-33.157 87.438 0.322 120.917l571.597 571.597h341.754c47.51 0 85.419-38.243 85.419-85.419v-341.754zM725.586 661.662c0-35.389 28.687-64.076 64.076-64.076s64.076 28.687 64.076 64.076c0 35.389-28.687 64.076-64.076 64.076s-64.076-28.687-64.076-64.076v0z" />
<glyph unicode="&#xe90b;" glyph-name="checkbox-blank" d="M810 768c46 0 86-40 86-86v-596c0-46-40-86-86-86h-596c-46 0-86 40-86 86v596c0 46 40 86 86 86h596zM810 682h-596v-596h596v596z" />
<glyph unicode="&#xe90c;" glyph-name="checkbox-checked" d="M426 170l384 384-60 62-324-324-152 152-60-60zM810 768c48 0 86-40 86-86v-596c0-46-38-86-86-86h-596c-48 0-86 40-86 86v596c0 46 38 86 86 86h596z" />
<glyph unicode="&#xe935;" glyph-name="discount" d="M976 896h-384c-26.4 0-63.274-15.274-81.942-33.942l-476.116-476.116c-18.668-18.668-18.668-49.214 0-67.882l412.118-412.118c18.668-18.668 49.214-18.668 67.882 0l476.118 476.118c18.666 18.666 33.94 55.54 33.94 81.94v384c0 26.4-21.6 48-48 48zM736 512c-53.020 0-96 42.98-96 96s42.98 96 96 96 96-42.98 96-96-42.98-96-96-96z" />
<glyph unicode="&#xe9ca;" glyph-name="site" d="M512 896c-282.77 0-512-229.23-512-512s229.23-512 512-512 512 229.23 512 512-229.23 512-512 512zM512-64.002c-62.958 0-122.872 13.012-177.23 36.452l233.148 262.29c5.206 5.858 8.082 13.422 8.082 21.26v96c0 17.674-14.326 32-32 32-112.99 0-232.204 117.462-233.374 118.626-6 6.002-14.14 9.374-22.626 9.374h-128c-17.672 0-32-14.328-32-32v-192c0-12.122 6.848-23.202 17.69-28.622l110.31-55.156v-187.886c-116.052 80.956-192 215.432-192 367.664 0 68.714 15.49 133.806 43.138 192h116.862c8.488 0 16.626 3.372 22.628 9.372l128 128c6 6.002 9.372 14.14 9.372 22.628v77.412c40.562 12.074 83.518 18.588 128 18.588 70.406 0 137.004-16.26 196.282-45.2-4.144-3.502-8.176-7.164-12.046-11.036-36.266-36.264-56.236-84.478-56.236-135.764s19.97-99.5 56.236-135.764c36.434-36.432 85.218-56.264 135.634-56.26 3.166 0 6.342 0.080 9.518 0.236 13.814-51.802 38.752-186.656-8.404-372.334-0.444-1.744-0.696-3.488-0.842-5.224-81.324-83.080-194.7-134.656-320.142-134.656z" />
<glyph unicode="&#xf101;" glyph-name="user" d="M508.29 344.24c-62.131 1.061-112.387 22.902-149.285 64.676-81.641 92.031-68.068 249.796-66.584 264.854 5.301 113.871 59.586 167.945 104.117 193.18 44.32 25.234 90.547 29.051 114.084 29.051h3.605c42.834-0.848 81.217-11.027 114.084-29.898 44.107-25.234 97.545-79.309 102.846-192.332 1.484-15.057 15.055-172.822-66.584-264.854-37.109-41.773-87.365-63.615-149.498-64.676h-6.785zM349.038 668.468c-0.211-1.273-14.631-146.105 52.59-221.596 26.506-30.111 62.344-44.955 108.994-45.379h2.121c46.863 0.424 82.488 15.268 109.207 45.379 67.432 75.916 52.59 220.112 52.377 221.596-0.213 0.424-0.213 1.059-0.213 1.695-6.572 143.771-103.904 167.098-161.158 168.369h-2.545c-46.229 0-154.162-16.328-161.16-168.369 0-0.424-0.213-1.061-0.213-1.695zM947.45 82.568c0.213-11.027 0.424-67.645-10.178-95.848-2.121-5.514-6.15-10.18-11.027-13.359-6.361-4.029-158.828-101.361-413.926-101.361-255.1 0-407.564 97.119-413.926 101.361-5.090 3.18-8.906 7.846-11.027 13.359-11.238 28.414-11.027 85.033-10.814 96.059v0.637c0.213 1.697 0.213 3.393 0.213 5.301 1.271 41.775 4.027 139.955 96.059 171.551 0.637 0.213 1.273 0.424 2.121 0.637 96.059 24.385 175.154 79.52 176.004 80.154 12.934 9.119 30.746 5.938 39.865-6.996 9.117-12.936 5.938-30.748-6.998-39.867-3.605-2.332-88.002-61.283-193.604-88.426-49.408-17.6-54.922-70.4-56.406-118.748 0-1.908-0.211-3.605-0.211-5.303-0.426-19.084 1.059-48.559 4.453-65.523 34.564-19.508 170.064-87.152 374.058-87.152 204.844 0 339.496 67.432 373.848 86.941 3.395 16.963 4.666 46.438 4.453 65.523-0.211 1.695-0.211 3.393-0.211 5.301-1.484 48.348-6.998 101.148-56.406 118.75-105.602 27.143-189.998 85.881-193.604 88.426-12.936 9.117-16.115 26.93-6.998 39.865 9.119 12.936 26.932 16.115 39.865 6.998 0.85-0.637 80.369-55.77 176.004-80.156 0.637-0.211 1.484-0.424 2.121-0.637 92.031-31.383 94.787-129.562 96.059-171.549 0-1.908 0.213-3.605 0.213-5.303v-0.635z" />
<glyph unicode="&#xf102;" glyph-name="arrow-right" d="M275.057 835.323c12.701 12.701 33.34 12.701 46.041-0.793l427.858-427.858c6.35-6.352 9.525-15.082 9.525-23.020 0-8.732-3.176-16.67-9.525-23.021l-427.858-427.858c-12.701-12.701-33.34-12.701-46.041 0s-12.701 33.34 0 46.041l405.63 405.63-405.63 404.838c-12.701 12.699-12.701 33.338 0 46.039z" />
<glyph unicode="&#xf103;" glyph-name="arrow-down" d="M963.323 620.943c12.701-12.701 12.701-33.34-0.793-46.041l-427.858-427.858c-6.352-6.35-15.082-9.525-23.020-9.525-8.732 0-16.67 3.176-23.021 9.525l-427.858 427.858c-12.701 12.701-12.701 33.34 0 46.041s33.34 12.701 46.041 0l405.63-405.63 404.838 405.63c12.699 12.701 33.338 12.701 46.039 0z" />
<glyph unicode="&#xf104;" glyph-name="letter" d="M1023.29 642.732l0.707-516.058c0.033-28.924-23.465-52.482-52.381-52.521l-918.454-1.262c-13.986 0-27.137 5.434-37.039 15.309-9.92 9.895-15.393 23.061-15.41 37.070l-0.711 516.056c-0.018 14.006 5.418 27.188 15.311 37.109 9.893 9.92 23.059 15.395 37.070 15.412l918.454 1.264c28.891 0 52.412-23.48 52.453-52.379zM913.22 642.58l-803.14-1.104 401.958-277.784zM681.692 311.058c-11.449 8.877-13.531 25.352-4.652 36.797 8.875 11.443 25.355 13.525 36.793 4.652l257.712-199.863-0.674 466.132-443.822-308.528c-4.498-3.127-9.736-4.693-14.971-4.693-5.211 0-10.422 1.549-14.908 4.65l-444.688 307.314 0.639-464.95 257.814 199.938c11.447 8.875 27.92 6.791 36.797-4.652 8.877-11.449 6.793-27.92-4.65-36.799l-239.392-185.648 815.944 1.119z" />
<glyph unicode="&#xf105;" glyph-name="arrow-left" d="M749.346-66.876c-12.701-12.701-33.34-12.701-46.041 0.793l-427.858 427.858c-6.35 6.352-9.525 15.082-9.525 23.020 0 8.732 3.176 16.67 9.525 23.021l427.858 427.858c12.701 12.701 33.34 12.701 46.041 0s12.701-33.34 0-46.041l-405.63-405.63 405.63-404.838c12.701-12.699 12.701-33.338 0-46.039z" />
<glyph unicode="&#xf106;" glyph-name="google" d="M662.204 896c2.348 0 4.441-1.555 5.066-3.818 0.654-2.262-0.275-4.684-2.264-5.943l-69.809-43.887c-0.824-0.541-1.818-0.814-2.813-0.814h-81.041c30.691-25.371 94.514-78.154 94.514-180.291 0-101.588-59.604-148.553-112.195-189.977l-1.725-1.746c-16.539-16.455-35.279-35.109-35.279-63.367 0-28.744 18.74-44.26 33.789-56.727l48.699-37.883c57.732-48.615 112.121-94.406 112.1-187.164 0-125.404-120.41-252.362-350.534-252.362-197.908 0-286.488 95.939-286.488 190.992 0 23.891 7.402 106.273 102.656 162.904 80.648 49.566 191.055 57.139 250.374 61.201l4.135 0.285-2.326 2.992c-18.496 23.637-37.627 48.098-37.627 87.756 0 20.367 5.467 33.418 11.24 47.25l1.988 4.834c-13.494-1.26-28.785-2.676-42.598-2.676-143.646 0-221.164 108.049-221.164 209.72 0 65.992 31.822 132.85 85.143 178.854 67.799 56.008 143.129 79.865 251.95 79.865h244.208zM366.058-72.023c120.846 0 195.932 55.266 195.941 144.248 0 69.852-47.188 106.527-145.338 176.377-10.617 1.334-17.301 1.334-30.594 1.334-0.783 0-79.264-1.016-140.062-21.479-75.92-27.508-114.469-73.775-114.469-137.449 0-97.518 94.248-163.031 234.522-163.031zM364.736 464.986c31.811 0 68.223 15.008 90.611 37.354 33.291 33.471 33.291 81.664 33.291 97.506 0 100.414-59.771 245.7-167.863 245.7-35.301 0-71.936-17.291-93.33-44.059-19.711-24.418-29.293-56.758-29.293-98.891 0-82.857 48.859-237.61 166.584-237.61zM1004.478 417.746c2.928 0 5.287-2.357 5.287-5.287v-56.072c0-2.928-2.369-5.287-5.287-5.287h-128.684v-129.072c0-2.91-2.379-5.289-5.287-5.289h-55.352c-2.92 0-5.287 2.379-5.287 5.289v129.051h-128.037c-2.92 0-5.289 2.381-5.289 5.289v56.092c0 2.918 2.369 5.287 5.289 5.287h128.037v128.227c0 2.92 2.367 5.289 5.287 5.289h55.352c2.908 0 5.287-2.369 5.287-5.289v-128.227h128.684z" />
<glyph unicode="&#xf107;" glyph-name="wishlist" d="M941.218 778.078c50.652-50.105 82.793-123.092 82.781-199.902 0-25.053-2.559-49.596-7.623-73.533-10.168-47.967-22.496-82.129-50.652-125.275-13.779-21.123-26.004-38.777-37.578-53.371-11.309-14.27-27.236-31.596-47.387-51.758-20.162-20.146-36.5-35.939-49.025-47.385-12.541-11.436-31.166-27.107-54.477-47.932-37.695-33.652-66.861-60.051-87.15-78.971-20.021-18.674-45.076-44.785-75.172-78.436-29.818-33.35-55.299-67.162-77.344-100.223-6.287-9.436-15.246-13.617-25.6-13.617-9.795 0-18.080 4.273-24.506 13.617-34.432 50.037-70.803 93.695-120.373 141.068-24.506 23.428-43.17 41.252-56.102 52.836-13.211 11.83-33.791 30.492-62.645 55.557-25.064 21.775-44.121 38.67-56.648 50.117-12.525 11.436-29.678 27.494-50.65 47.932-20.965 20.418-36.488 38.125-47.389 52.291-10.887 14.152-23.609 32.002-37.578 53.369-13.805 21.127-24.182 41.867-31.049 61.006-13.828 38.604-25.053 89.883-25.053 142.707 0 76.811 32.141 149.797 82.795 199.904 50.662 50.115 123.648 82.246 200.448 82.246 45.201 0 87.684-10.344 128.541-31.049 40.855-20.697 74.078-49.014 100.223-84.967 26.146 35.953 59.365 64.27 100.225 84.965 40.844 20.707 83.328 31.051 128.541 31.051 76.799 0 149.795-32.131 200.448-82.248zM958.648 522.624c3.127 17.998 4.902 36.498 4.922 55.553 0 61.553-21.785 113.842-65.361 156.871-43.576 43.031-95.867 64.818-157.418 64.818-43.031 0-83.338-11.434-119.826-34.859-36.488-23.414-62.762-54.662-81.154-93.135-5.58-11.656-15.26-16.885-27.785-16.885s-21.428 5.613-26.691 16.885c-18.162 38.844-46.295 69.721-82.793 93.135-36.498 23.426-76.264 34.859-119.291 34.859-61.539 0-113.832-21.789-157.953-65.363-43.574-43.029-65.361-95.32-65.361-156.326 0-32.129 2.848-61.133 11.979-89.322l12.529-38.672c7.691-23.775 28.91-52.266 41.389-71.357 6.045-9.23 15.26-20.697 27.238-33.77 11.98-13.072 21.637-23.555 28.863-31.596 7.473-8.297 18.908-19.232 33.77-32.676l34.314-31.051 37.578-33.221c35.281-31.188 61.006-53.93 77.891-69.174 16.885-15.258 39.623-38.268 69.174-68.629 29.271-30.096 55.010-59.381 77.344-88.244 21.244 29.412 46.156 59.51 74.625 89.871 28.725 30.641 52.836 54.998 72.439 72.984 20.162 18.512 45.889 41.797 77.891 70.27 61.682 54.869 103.908 95.436 126.916 120.92 52.709 58.402 84.281 117.676 94.773 178.113z" />
<glyph unicode="&#xf108;" glyph-name="instagram" d="M921.6 896c56.32 0 102.4-46.080 102.4-102.4v-819.2c0-56.32-46.080-102.4-102.4-102.4h-819.2c-56.32 0-102.4 46.080-102.4 102.4v819.2c0 56.32 46.080 102.4 102.4 102.4h819.2zM512 588.8c-112.641 0-204.8-92.16-204.8-204.8s92.16-204.8 204.8-204.8 204.8 92.16 204.8 204.8-92.16 204.8-204.8 204.8zM128-25.6h768c15.359 0 25.6 10.24 25.6 25.6v435.2h-107.52c5.119-15.359 5.119-35.84 5.119-51.199 0-168.961-138.238-307.2-307.2-307.2s-307.2 138.238-307.2 307.2c0 15.359 0 35.84 5.119 51.199h-107.52v-435.2c0-15.359 10.24-25.6 25.6-25.6zM921.6 665.6v102.4c0 15.359-10.24 25.6-25.6 25.6h-102.4c-15.359 0-25.6-10.24-25.6-25.6v-102.4c0-15.359 10.24-25.6 25.6-25.6h102.4c15.359 0 25.6 10.24 25.6 25.6z" />
<glyph unicode="&#xf109;" glyph-name="call" d="M822.996-128c-42.605 0-94.062 10.678-150.65 32.031-124.061 46.771-259.040 139.215-380.070 260.244-121.062 121.064-213.506 256.078-260.312 380.138-42.537 112.799-42.641 205.378-0.242 247.742 6.098 6.098 12.297 12.641 18.703 19.391 38.678 40.678 82.385 86.451 140.316 84.385 39.92-1.654 78.598-26.451 118.205-75.738 117.035-145.553 64.27-197.424 3.203-257.558l-10.779-10.678c-9.988-9.988-28.863-56.244 146.723-231.83 57.312-57.312 106.186-99.262 145.244-124.646 24.592-15.98 68.574-40.16 86.621-22.111l10.85 10.953c60.066 60.928 111.938 113.521 257.386-3.41 49.287-39.609 74.051-78.254 75.703-118.24 2.377-57.896-43.742-101.707-84.451-140.352-6.717-6.406-13.262-12.605-19.357-18.668-21.045-21.078-54.693-31.652-97.092-31.652zM186.607 861.558c-41.158 0-78.32-39.127-111.213-73.742-6.613-6.957-13.020-13.707-19.322-20.010-31.584-31.549-28.381-114.451 8.127-211.27 45.121-119.582 134.773-250.256 252.462-367.946 117.654-117.619 248.258-207.272 367.876-252.358 96.818-36.578 179.721-39.678 211.234-8.162 6.303 6.303 13.055 12.709 20.012 19.287 35.371 33.615 75.496 71.709 73.74 113.969-1.205 29.035-22.354 60.273-62.857 92.822-121.201 97.471-155.092 63.062-211.302 6.063l-11.021-11.125c-26.865-26.9-70.502-20.941-129.744 17.564-41.088 26.727-91.855 70.193-150.82 129.193-145.727 145.689-192.326 234.862-146.725 280.564l10.986 10.85c57.141 56.211 91.617 90.137-5.889 211.406-32.617 40.471-63.822 61.617-92.855 62.857-0.896 0.035-1.791 0.035-2.688 0.035z" />
<glyph unicode="&#xf10a;" glyph-name="cart" d="M307.406 221.774c-21.676 0-42.090 5.893-59.348 15.994v-77.025c0-32.621 26.518-59.348 59.348-59.348h536.656c63.137 0 114.697-51.562 114.697-114.697 0-63.137-51.561-114.697-114.697-114.697s-114.697 51.352-114.697 114.697c0 21.045 5.682 40.828 15.785 57.875h-255.49c10.102-16.836 15.783-36.83 15.783-57.875 0-63.137-51.561-114.697-114.697-114.697s-114.697 51.352-114.697 114.697c0 21.467 6.104 41.67 16.416 58.926-57.033 7.367-101.229 56.191-101.229 115.119v622.519l-137.637 58.086c-14.521 6.104-21.256 22.729-15.152 37.25s22.729 21.256 37.25 15.152l155.105-65.24c0.842-0.42 1.893-0.842 2.734-1.262 0.211-0.211 0.422-0.211 0.633-0.422 0.42-0.211 1.051-0.631 1.684-1.053 0.42-0.42 0.842-0.631 1.262-1.051 0.211-0.211 0.631-0.422 0.842-0.633 0.631-0.42 1.053-0.842 1.473-1.262l0.633-0.633c0.42-0.42 0.842-0.84 1.262-1.262l0.631-0.631c0.211-0.422 0.633-0.842 0.842-1.264 0.211-0.42 0.422-0.631 0.633-1.053 0.209-0.42 0.42-0.631 0.631-1.051 0.42-0.422 0.631-0.842 0.842-1.264 0.211-0.211 0.211-0.631 0.42-0.842 0.422-0.631 0.633-1.053 0.842-1.684 0-0.211 0.211-0.631 0.211-0.842l0.633-1.895c0-0.42 0.209-0.631 0.209-1.051 0.211-0.633 0.211-1.053 0.422-1.684 0-0.633 0.211-1.264 0.211-1.895 0.209-0.422 0.209-0.631 0.209-0.842 0.211-0.842 0.211-1.895 0.211-2.947v-99.754l715.12-98.703c0.422 0 0.633-0.211 0.842-0.211 0.633 0 1.053 0 1.684-0.209 0.211 0 0.633-0.211 1.053-0.211 0.422 0 1.053-0.211 1.475-0.422 0.42-0.209 0.84-0.209 1.262-0.42s0.842-0.422 1.264-0.631c0.42-0.211 0.842-0.422 1.262-0.633 0.422-0.209 0.842-0.42 1.264-0.631 0.42-0.42 0.842-0.631 1.262-0.842 0.422-0.211 0.631-0.42 1.053-0.631 0.42-0.211 0.842-0.631 1.262-0.842 0.422-0.211 0.633-0.631 1.053-0.842l1.053-1.053c0.211-0.211 0.631-0.42 0.842-0.842 0.211-0.42 0.631-0.631 0.842-1.053 0.211-0.42 0.631-0.631 0.842-1.053 0.42-0.42 0.631-0.631 0.842-1.051 0.211-0.422 0.631-0.842 0.842-1.264 0.211-0.42 0.42-0.631 0.631-1.053 0.211-0.42 0.422-0.842 0.631-1.262 0.211-0.211 0.422-0.631 0.633-1.053 0.209-0.631 0.42-1.053 0.631-1.473 0.211-0.422 0.211-0.842 0.42-1.264 0.211-0.42 0.211-0.842 0.422-1.262 0.211-0.631 0.211-1.053 0.42-1.473 0-0.422 0.211-0.842 0.211-1.264 0-0.42 0.211-1.053 0.211-1.473 0.211-0.422 0.211-0.842 0.211-1.264v-239.915c0-63.979-52.193-116.17-116.17-116.17h-564.226zM448.832-13.092c0 31.988-26.098 57.873-57.875 57.873-31.779 0-57.875-26.096-57.875-57.873 0-31.779 26.096-57.875 57.875-57.875 31.777 0 57.875 25.885 57.875 57.875zM902.148-13.092c0 31.988-26.098 57.873-57.875 57.873-31.779 0-57.875-26.096-57.875-57.873 0-31.779 26.096-57.875 57.875-57.875 31.777 0 57.875 25.885 57.875 57.875zM871.632 278.596c32.619 0 59.348 26.518 59.348 59.559v212.768l-682.922 94.072v-307.051c0-32.621 26.518-59.348 59.348-59.348h564.226z" />
<glyph unicode="&#xf10b;" glyph-name="clock" d="M210.204 219.386c1.518-2.785 3.061-5.557 4.625-8.309 1.58-2.721 3.195-5.443 4.836-8.117l-34.117-21.014c-1.854 3.008-3.654 6.029-5.42 9.102-1.742 3.033-3.471 6.117-5.148 9.213zM340.562 680.324c-2.725-1.566-5.447-3.184-8.121-4.822l-21.014 34.119c2.996 1.838 6.018 3.654 9.090 5.42 3.035 1.752 6.105 3.471 9.201 5.148l19.125-35.227c-2.785-1.518-5.547-3.059-8.281-4.639zM814.43 546.31c-1.518 2.799-3.059 5.559-4.623 8.309-1.58 2.723-3.195 5.445-4.838 8.119l34.119 21.014c1.838-3.010 3.654-6.031 5.42-9.104 1.74-3.033 3.471-6.117 5.148-9.213zM512.31 726.356c-3.145 0-6.316-0.037-9.461-0.137l-1.133 40.062c3.531 0.1 7.051 0.148 10.594 0.148 3.494 0 7.025-0.049 10.545-0.137l-1.057-40.074c-3.172 0.088-6.344 0.137-9.488 0.137zM180.127 574.636c1.752 3.045 3.557 6.066 5.396 9.066l34.168-20.951c-1.654-2.711-3.283-5.422-4.861-8.158-1.568-2.725-3.123-5.482-4.615-8.244l-35.262 19.049c1.68 3.098 3.408 6.166 5.174 9.238zM692.216 675.474c-2.699 1.654-5.42 3.283-8.143 4.863-2.738 1.568-5.496 3.123-8.258 4.613l19.049 35.262c3.098-1.678 6.166-3.406 9.238-5.172 3.033-1.754 6.055-3.557 9.064-5.396zM128.875 393.4l40.088-1.057c-0.086-3.172-0.137-6.342-0.137-9.488s0.037-6.316 0.125-9.449l-40.064-1.131c-0.096 3.52-0.146 7.037-0.146 10.58 0 3.496 0.047 7.025 0.135 10.545zM895.748 393.438c0.1-3.52 0.148-7.039 0.137-10.582 0-3.494-0.049-7.025-0.137-10.543l-40.074 1.055c0.088 3.172 0.135 6.344 0.135 9.488 0 3.146-0.035 6.316-0.123 9.449zM809.792 211.106c1.578 2.725 3.131 5.496 4.613 8.242l35.262-19.049c-1.678-3.096-3.408-6.166-5.172-9.238-1.754-3.033-3.557-6.055-5.396-9.063l-34.17 20.951c1.654 2.709 3.283 5.422 4.863 8.156zM332.418 90.236c2.697-1.666 5.42-3.283 8.154-4.861 2.725-1.568 5.484-3.123 8.244-4.613l-19.049-35.262c-3.096 1.678-6.166 3.406-9.238 5.172-3.033 1.754-6.053 3.555-9.063 5.396zM874.038 746.038c199.951-199.949 199.951-524.124 0-724.074-199.949-199.951-524.124-199.951-724.074 0-199.951 199.949-199.951 524.124 0 724.074 199.949 199.951 524.124 199.951 724.074 0zM826.712 69.287c173.803 173.811 173.816 455.616 0 629.43-173.814 173.814-455.616 173.814-629.43 0s-173.814-455.62 0-629.43c173.814-173.812 455.62-173.812 629.43 0zM512.31 39.357c3.16 0 6.328 0.037 9.461 0.137l1.133-40.064c-3.531-0.1-7.051-0.146-10.594-0.146-3.494 0-7.025 0.035-10.545 0.135l1.057 40.076c3.172-0.088 6.344-0.137 9.488-0.137zM684.074 85.375c2.723 1.578 5.443 3.195 8.121 4.822l21.014-34.117c-2.998-1.838-6.018-3.654-9.090-5.42-3.033-1.754-6.105-3.471-9.203-5.148l-19.123 35.225c2.785 1.518 5.547 3.061 8.281 4.639zM532.044 454.3c30.734-8.766 53.379-36.754 53.381-70.299 0-40.549-32.877-73.422-73.424-73.422-36.145 0-66.012 26.174-72.115 60.566l-194.504 48.939c-16.092 4.041-25.875 20.379-21.822 36.48 4.064 16.088 20.404 25.873 36.492 21.807l194.654-48.965c9.412 11.848 22.309 20.627 37.254 24.893v250.008c0 11.064 8.965 20.043 20.041 20.043s20.043-8.977 20.043-20.043v-250.008zM512 345.392c21.324 0 38.607 17.283 38.607 38.607s-17.283 38.607-38.607 38.607-38.607-17.283-38.607-38.607 17.283-38.607 38.607-38.607z" />
<glyph unicode="&#xf10c;" glyph-name="phone" d="M690.088 896c61.217 0 111.303-50.088 111.303-111.305v-801.39c0-61.219-50.086-111.305-111.303-111.305h-356.176c-61.217 0-111.303 50.086-111.303 111.305v801.39c0 61.217 50.086 111.305 111.303 111.305h356.176zM756.87-16.695v111.305h-489.738v-111.305c0-36.73 30.053-66.783 66.781-66.783h356.176c36.73 0 66.781 30.053 66.781 66.783zM756.87 139.131v578.782h-489.738v-578.782h489.738zM756.87 762.436v22.26c0 36.73-30.051 66.783-66.781 66.783h-356.176c-36.729 0-66.781-30.053-66.781-66.783v-22.26h489.738zM512-61.217c-36.73 0-66.783 30.051-66.783 66.781s30.053 66.783 66.783 66.783 66.783-30.053 66.783-66.783-30.053-66.781-66.783-66.781zM512 27.826c-12.244 0-22.262-10.018-22.262-22.262 0-12.242 10.018-22.26 22.262-22.26s22.262 10.018 22.262 22.26c0 12.244-10.018 22.262-22.262 22.262zM523.13 829.216c12.242 0 22.26-10.018 22.26-22.26 0-12.244-10.018-22.262-22.26-22.262h-22.262c-12.242 0-22.26 10.018-22.26 22.262 0 12.242 10.018 22.26 22.26 22.26h22.262z" />
<glyph unicode="&#xf10d;" glyph-name="arrow-up" d="M60.677 147.057c-12.701 12.701-12.701 33.34 0.793 46.041l427.858 427.858c6.352 6.35 15.082 9.525 23.020 9.525 8.732 0 16.67-3.176 23.021-9.525l427.858-427.858c12.701-12.701 12.701-33.34 0-46.041s-33.34-12.701-46.041 0l-405.63 405.63-404.838-405.63c-12.699-12.701-33.338-12.701-46.039 0z" />
<glyph unicode="&#xf10e;" glyph-name="geo" d="M512 896c222.142 0 402.87-180.727 402.87-402.868 0-72.754-18.771-149.982-55.793-229.544-29.232-62.824-69.885-127.309-120.828-191.662-86.361-109.1-171.506-179.391-175.088-182.33-13.832-11.346-32-17.596-51.16-17.596s-37.328 6.25-51.158 17.594c-3.584 2.938-88.729 73.229-175.090 182.33-50.943 64.355-91.596 128.84-120.828 191.662-37.021 79.562-55.793 156.793-55.793 229.544 0 222.142 180.727 402.87 402.87 402.87zM702.504 101.422c75.74 95.842 166.031 241.598 166.031 391.708 0 196.594-159.941 356.536-356.536 356.536s-356.536-159.941-356.534-356.536c0-289.728 331.416-564.966 334.764-567.71 5.484-4.502 13.42-7.086 21.77-7.086s16.285 2.584 21.773 7.086c0.838 0.688 85.432 70.602 168.73 176.002zM512 707.33c118.107 0 214.198-96.090 214.198-214.2 0-118.107-96.090-214.198-214.198-214.198s-214.198 96.090-214.198 214.198c0 118.109 96.090 214.2 214.198 214.2zM512 325.268c92.561 0 167.861 75.301 167.861 167.863s-75.301 167.863-167.861 167.863-167.861-75.303-167.861-167.863 75.301-167.863 167.861-167.863z" />
</font>
</defs>
</svg>
