<svg xmlns="http://www.w3.org/2000/svg" width="112" height="113" fill="none"><path fill="#fff" d="M84.111 24.02a2.5 2.5 0 1 0 3.778-3.276L84.11 24.02Zm1.377-2.228 1.889-1.638-1.889 1.638Zm-63.987 3.286a2.5 2.5 0 0 0 2.577 2.42l22.49-.702a2.5 2.5 0 0 0-.157-4.998l-19.99.625-.625-19.99a2.5 2.5 0 1 0-4.998.156l.703 22.49Zm66.388-4.334-.512-.59L83.6 23.43l.511.59 3.778-3.276Zm-.512-.59C78.303 9.691 66.757 4.388 55.102 4.502c-11.654.113-23.129 5.64-32.074 16.27l3.826 3.22c8.12-9.65 18.269-14.393 28.297-14.49C65.178 9.404 75.374 13.946 83.6 23.43l3.777-3.276Zm-63.32 1.134-1.88 2 3.645 3.424 1.879-2-3.644-3.424ZM84.111 88.98a2.5 2.5 0 1 1 3.778 3.276L84.11 88.98Zm1.377 2.228 1.889 1.638-1.889-1.638Zm-63.987-3.286a2.5 2.5 0 0 1 2.577-2.42l22.49.702a2.5 2.5 0 0 1-.157 4.998l-19.99-.625-.625 19.99a2.5 2.5 0 0 1-4.998-.156l.703-22.49Zm66.388 4.334-.512.59L83.6 89.57l.511-.59 3.778 3.276Zm-.512.59c-9.074 10.463-20.62 15.766-32.275 15.652-11.654-.113-23.129-5.639-32.074-16.27l3.826-3.22c8.12 9.65 18.269 14.393 28.297 14.49 10.027.098 20.223-4.444 28.449-13.928l3.777 3.276Zm-63.32-1.134-1.88-2 3.645-3.424 1.879 2-3.644 3.424ZM8.532 48.702c-.54.828-1.188 1.332-1.944 1.512-.72.18-.422.126-1.106-.162-1.022-.43-1.166-1.892-1.267-2.995a4.182 4.182 0 0 1-.001-.731c.036-.576.18-1.206.432-1.89.252-.684.558-1.332.918-1.944.396-.648.81-1.242 1.242-1.782.468-.576.936-1.062 1.404-1.458.582-.554 1.29-.931 2.047-1.2.742-.265 1.688-.581 2.325-.716 1.224-.252 2.43-.36 3.618-.324 1.224.036 2.358.216 3.402.54 2.88.9 4.112 1.322 5.696 3.266 1.584 1.944 2.376 4.464 2.376 7.56 0 1.476-.144 2.808-.432 3.996-.252 1.152-.72 2.268-1.404 3.348-1.442 2.403-3.262 4.63-5.284 6.57l-.412.396c-.54.468-1.098.936-1.674 1.404l-1.728 1.404c-.18.144-.522.36-1.026.648-.504.288-.954.576-1.35.864-.396.288-2.25.936-2.322 1.188-.072.252 1.836.018 2.484.054.792.072 1.422.09 1.89.054a25.919 25.919 0 0 1 1.89-.054c.936 0 1.854-.018 2.754-.054.9-.036 1.8-.018 2.7.054a12 12 0 0 0 1.188.054 7.79 7.79 0 0 1 1.296 0 4.7 4.7 0 0 1 1.242.162c.396.072.738.234 1.026.486.288.252.504.594.648 1.026.144.432.216.9.216 1.404.036.468 0 .936-.108 1.404-.108.432-.288.774-.54 1.026-.468.54-1.044.81-1.728.81a37.07 37.07 0 0 0-1.944-.054H5.67c-.36 0-.756.018-1.188.054-.396.036-.692 0-1.08-.108-.648-.18-.972-.522-.972-1.026a21.99 21.99 0 0 0 .054-1.566c0-.9.216-1.728.648-2.484a9.423 9.423 0 0 1 1.62-2.16 21.36 21.36 0 0 1 2.16-1.89 61.779 61.779 0 0 0 2.106-1.674 55.843 55.843 0 0 1 3.024-2.484 76.878 76.878 0 0 0 3.078-2.484c1.26-1.044 2.322-1.998 3.186-2.862.9-.864 1.62-1.674 2.16-2.43.54-.756.936-1.494 1.188-2.214a7.464 7.464 0 0 0 .378-2.376c0-1.836-.558-3.24-1.674-4.212-1.116-1.008-2.538-1.512-4.266-1.512-1.26 0-2.448.27-3.564.81-1.08.54-1.98 1.332-2.7 2.376-.216.396-.432.81-.648 1.242a7.09 7.09 0 0 1-.648 1.134Z"/><path fill="#fff" fill-rule="evenodd" stroke="#fff" stroke-width=".1" d="m36.697 42 1.33.077c-.071.034-.071.068 0 .102.152.058.315.084.478.076v.153c.181.07.358.146.532.23.149.211.338.393.558.536.052.165.133.32.24.46a.168.168 0 0 0 .16.05c-.01.12 0 .24.026.358.038.075.1.109.186.102.009 1.038 0 2.075-.026 3.113-.083-.043-.137-.009-.16.102l-.053 1.787-.054-.051c-.051.096-.087.2-.106.306-.009.545-.035 1.09-.08 1.633a.23.23 0 0 0-.08.102 31.804 31.804 0 0 0-.026 1.838c-.086-.007-.148.027-.186.102l-.053 1.838c-.083-.043-.137-.01-.16.102a30.01 30.01 0 0 1-.08 1.786.256.256 0 0 0-.132.204 1.59 1.59 0 0 0-.027.408h9.04V44.195h.16v-.46c.19-.013.26-.115.213-.306.166-.002.255-.087.265-.255l.532-.51.585-.358a1.5 1.5 0 0 1 .479-.102v-.153a21.1 21.1 0 0 1 2.074.051c.268.114.535.233.798.358a.153.153 0 0 1 .053.153h.212a.243.243 0 0 0 .027.153c.22.066.353.202.399.408h.16c-.04.176.03.261.212.255a.591.591 0 0 0 .053.307.168.168 0 0 0 .16.05c-.009.121 0 .24.026.358a.24.24 0 0 0 .186.051c.018 4.375 0 8.747-.053 13.118.012.03.029.055.053.076 1.383.026 2.766.034 4.148.025v.154h.479c.014.182.12.25.32.204a.217.217 0 0 0 .052.178c.267.131.48.319.639.562.05.025.103.033.159.025-.009.07 0 .14.027.205.12.089.19.208.212.357.036.068.071.068.107 0 .014.139.04.275.08.408a.168.168 0 0 0 .159.051v1.99a.168.168 0 0 0-.16.052 5.92 5.92 0 0 1-.106.408c-.095.174-.22.329-.372.46.056.081.02.124-.106.127a.68.68 0 0 1-.266.358c-.133.052-.258.12-.373.204a.217.217 0 0 0-.053.178.386.386 0 0 0-.372.128c.026.026.036.035.053.05a2.273 2.273 0 0 1-.479.027.217.217 0 0 1-.053.178c-1.34.042-2.678.033-4.015-.025-.068.005-.112.04-.133.102.054 3.35.071 6.701.053 10.055a.24.24 0 0 0-.186.051 1.594 1.594 0 0 0-.026.408c-.175.027-.245.13-.213.306-.181-.006-.252.08-.213.256h-.16c-.036.197-.16.325-.371.382a.218.218 0 0 0-.053.18h-.213a.153.153 0 0 1-.053.152l-.798.357a21.1 21.1 0 0 1-2.074.052v-.154a1.112 1.112 0 0 1-.85-.382.466.466 0 0 0-.214-.026.154.154 0 0 0-.053-.153l-.346-.255a.242.242 0 0 1-.026-.153h-.16c.04-.176-.031-.262-.212-.255.047-.191-.023-.293-.213-.307v-.459h-.16V63.693c-4.572.059-9.145.068-13.72.025a.217.217 0 0 1-.053-.178c-.16.008-.32 0-.479-.026.051-.059.034-.11-.053-.153a.718.718 0 0 0-.266-.026c.006-.174-.082-.241-.266-.204v-.153a.272.272 0 0 1-.16-.025 1.909 1.909 0 0 1-.265-.358.273.273 0 0 0-.16-.025 33.163 33.163 0 0 1-.452-.97c-.035-.068-.07-.068-.106 0a20.803 20.803 0 0 1 .027-3.063.256.256 0 0 0 .133-.204l.053-1.735c.054.058.09.04.106-.051l.053-1.787a.34.34 0 0 0 .16-.153c.026-.612.035-1.225.026-1.837.087.007.149-.027.187-.102l.053-1.838.053.051a.396.396 0 0 0 .106-.204c.122-1.187.193-2.38.213-3.573l.16-.153.052-1.888c.075.067.128.05.16-.052.027-.288.036-.578.027-.867.086.007.148-.027.186-.102.026-.118.035-.237.026-.358a.169.169 0 0 0 .16-.05 2.311 2.311 0 0 1 1.33-1.226v-.153c.16 0 .32-.017.478-.05v-.154c.312.017.613 0 .904-.051Z" clip-rule="evenodd"/><path stroke="#fff" stroke-width="5" d="m73 38.5-5 41"/><path fill="#fff" d="M105.443 47.926a.271.271 0 0 0-.201.057.838.838 0 0 0-.045.36.437.437 0 0 0-.281.056c-.004.205-.114.363-.327.475a.827.827 0 0 1-.368.536l.078.122c-.09.044-.184.082-.282.115l-.086.36c-.09-.06-.17-.04-.24.056a.839.839 0 0 0-.046.36l-.239-.004c-.165.292-.303.59-.415.896l-.239-.004-.007.421a.434.434 0 0 0-.28.056l-.087.42c-.124-.053-.204-.015-.241.116a.84.84 0 0 0-.046.36l-.239-.004a.661.661 0 0 0-.007.39c-.292.119-.401.307-.329.567a.432.432 0 0 0-.28.056 1.112 1.112 0 0 0-.047.42.437.437 0 0 0-.281.055 8.63 8.63 0 0 1-.374.867c-.041.07-2.002.119-.201.147a1.476 1.476 0 0 0-.049.48.433.433 0 0 0-.28.056l-.088.48c-.09-.06-.17-.04-.24.056a1.487 1.487 0 0 0-.048.48l-.24-.004a3.933 3.933 0 0 0-.34 1.198.434.434 0 0 0-.28.056l-.089.54c-.123-.053-.203-.015-.24.116a4.07 4.07 0 0 0-.458 1.075.303.303 0 0 0-.12.058c-.044.22-.062.44-.053.662a.432.432 0 0 0-.28.055l-.09.66c-.091-.059-.171-.04-.24.056.01.316-.1.596-.335.837a2.457 2.457 0 0 1-.13.6.303.303 0 0 0-.12.058c-.045.279-.063.56-.055.841a.433.433 0 0 0-.28.056c-.045.279-.063.56-.055.841-.128-.01-.222.029-.28.116.02.394-.093.754-.339 1.077-.02.343-.065.683-.137 1.021a.304.304 0 0 0-.12.058c-.049.46-.07.921-.065 1.383-.129-.01-.223.028-.281.116l-.117 2.103-.079-.061a.448.448 0 0 0-.163.238 57.397 57.397 0 0 1-.173 3.005c-.104.034-.171.093-.202.177a1.484 1.484 0 0 0-.049.48.295.295 0 0 0-.24.057.31.31 0 0 0-.045.3c-.19.05-.311.148-.364.295a.296.296 0 0 1-.24.056l-.004.24c-.239-.023-.347.055-.323.236l-.319-.005c-.127.159-.29.307-.486.443-.13.027-.264.035-.399.024l-.003.18a2.833 2.833 0 0 0-.109-.005c-.006.009-.01.01-.01 0h-.011a2.579 2.579 0 0 0-.429.026c-.025.008-.01-.03.026-.089l-.022-.004a1.576 1.576 0 0 0-.594-.25c-.128.06-.195.02-.197-.124-.552-.188-.945-.495-1.179-.922-.052-.08-.105-.082-.16-.002l-.074-.302a.432.432 0 0 0-.278-.065 1.145 1.145 0 0 0-.032-.422.43.43 0 0 0-.278-.065 3.836 3.836 0 0 0-.026-.782c-.046-.12-.126-.141-.238-.064a4.106 4.106 0 0 1 .02-1.143c.124.053.204.014.242-.117.04-.841.083-1.683.124-2.524.123.053.204.014.241-.117l.111-1.743.079.062a.445.445 0 0 0 .163-.238c.02-.422.068-.842.142-1.261a.303.303 0 0 0 .12-.058c.048-.42.069-.84.062-1.263a.433.433 0 0 0 .28-.055l.1-1.142c.11.081.19.062.24-.056a5.8 5.8 0 0 0 .058-.962c.129.011.222-.028.28-.115.019-.283.064-.563.135-.84a.305.305 0 0 0 .12-.059c.045-.279.064-.56.055-.841a.431.431 0 0 0 .28-.056c.045-.279.064-.56.055-.841a.433.433 0 0 0 .28-.055c.044-.24.062-.48.053-.722.128.01.222-.028.28-.115.044-.22.062-.44.052-.661l.239.004c.038-.22.055-.44.052-.661l.24-.117.092-.66c.09.06.171.04.24-.056.044-.199.061-.4.051-.6.129.01.223-.029.281-.117.043-.178.06-.359.05-.54.129.01.222-.028.28-.116a.692.692 0 0 1 .25-.537l.09-.6c.09.059.17.04.24-.057.042-.158.058-.318.048-.48a.434.434 0 0 0 .28-.056c.043-.178.059-.359.05-.54l.239.003a.798.798 0 0 1 .289-.596c.043-.159.058-.319.048-.48a.434.434 0 0 0 .28-.056c.043-.159.058-.319.048-.48a.434.434 0 0 0 .28-.056c-.002-.225.106-.404.329-.537.042-.138.057-.278.047-.42l.24.004.008-.481a.434.434 0 0 0 .28-.055l.087-.42c.09.059.17.04.24-.057.042-.138.057-.278.047-.42a.297.297 0 0 0 .24-.056c.076-.246.213-.464.41-.655l-.077-.122c.288-.078.397-.236.327-.476a.297.297 0 0 0 .24-.056c.046-.122.1-.241.166-.358.266-.29.524-.587.773-.89a.844.844 0 0 0 .046-.36.433.433 0 0 0 .28-.056.843.843 0 0 0 .046-.36.433.433 0 0 0 .28-.055.73.73 0 0 1 .125-.299c.122-.145.258-.284.406-.414a.464.464 0 0 0 .086-.36c.285-.01.393-.13.325-.355.147.019.254-.02.321-.116-5.47-.15-10.941-.26-16.413-.33.014-.08-.01-.15-.077-.213l-.636-.07c.078-.068.052-.129-.076-.182a4.14 4.14 0 0 1-.792-.284l.002-.18c-.306-.056-.516-.2-.63-.432a.296.296 0 0 0-.237-.064l.004-.24-.319-.006c.04-.17-.023-.312-.192-.424l-.08.058-.07-.542a.306.306 0 0 0-.119-.062c-.092-.784-.078-.65.042-1.431a.305.305 0 0 0 .12-.059c.043-.158.058-.318.048-.48.285-.01.393-.13.326-.355.25 0 .384-.097.404-.295l.807-.588c.539-.216 1.074-.428 1.605-.635 9.032.09 14.275.218 23.306.387-.019.07.006.131.076.182.368.069.712.164 1.031.288.073.176.231.249.475.218-.03.18.075.262.314.246l-.003.18.239.004c-.029.18.075.262.314.246-.062.207.042.309.314.306a.839.839 0 0 0 .034.362.43.43 0 0 0 .277.064c-.015.162-.006.323.032.482a.3.3 0 0 0 .118.063c.093.74.08.572-.039 1.31a.302.302 0 0 0-.121.058 1.475 1.475 0 0 0-.048.48.432.432 0 0 0-.28.056.837.837 0 0 0-.046.36.433.433 0 0 0-.28.056l-.085.3c-.052-.081-.105-.082-.16-.003a4.167 4.167 0 0 1-.649.65l-.085.3a.433.433 0 0 1-.28.056l-.005.3c-.262.029-.37.147-.325.356-.262.028-.371.147-.326.356l-.239-.004a1.87 1.87 0 0 0-.331.716.297.297 0 0 0-.24.057 1.31 1.31 0 0 1-.407.444c.09.046.09.096-.002.15-.257.062-.339.18-.245.357-.28.057-.388.195-.327.416a.435.435 0 0 0-.28.056.839.839 0 0 0-.046.36.433.433 0 0 0-.28.056 8.768 8.768 0 0 0-.37.655Z"/><path stroke="#fff" stroke-width=".1" d="M91.798 75.797c.135.013.268.004.399-.023.197-.136.359-.284.486-.443l.319.005c-.023-.18.084-.26.323-.235l.004-.241a.296.296 0 0 0 .24-.056c.053-.147.174-.246.364-.295a.31.31 0 0 1 .045-.3.295.295 0 0 1 .24-.056c-.01-.162.006-.322.049-.48.03-.085.098-.144.202-.178.084-1.001.141-2.002.173-3.005a.448.448 0 0 1 .163-.238l.079.061L95 68.21c.058-.088.152-.127.281-.116a11.97 11.97 0 0 1 .064-1.383.304.304 0 0 1 .12-.058c.073-.338.119-.678.138-1.02.246-.324.358-.683.338-1.078.059-.087.153-.126.282-.116-.01-.281.01-.562.054-.841a.433.433 0 0 1 .28-.056c-.008-.281.01-.562.055-.841a.303.303 0 0 1 .12-.058c.07-.196.113-.397.13-.6.234-.241.346-.52.334-.837.07-.096.15-.115.24-.055l.092-.661a.432.432 0 0 1 .28-.055c-.01-.222.008-.443.051-.662a.303.303 0 0 1 .12-.058c.101-.38.254-.739.458-1.075.038-.13.118-.169.241-.116l.09-.54a.435.435 0 0 1 .28-.056c.048-.413.161-.812.34-1.198.074.002.119.003.239.004-.01-.161.005-.322.048-.48.07-.097.15-.116.24-.056.03-.16.06-.32.088-.48a.433.433 0 0 1 .28-.056c-.01-.161.006-.322.049-.48-1.801-.029.16-.078.201-.147a8.63 8.63 0 0 0 .374-.867.437.437 0 0 1 .281-.055 1.112 1.112 0 0 1 .047-.42.432.432 0 0 1 .28-.056c-.072-.26.037-.448.329-.566a.661.661 0 0 1 .007-.39l.239.003a.84.84 0 0 1 .046-.36c.037-.13.117-.17.241-.116l.087-.42a.434.434 0 0 1 .28-.056l.007-.42.239.003c.112-.305.25-.604.415-.895l.239.003a.839.839 0 0 1 .046-.36c.07-.096.15-.115.24-.056l.086-.36c.098-.033.192-.072.282-.115-.026-.04-.053-.081-.078-.122a.827.827 0 0 0 .368-.535c.213-.113.323-.271.327-.476a.437.437 0 0 1 .281-.056.838.838 0 0 1 .045-.36.271.271 0 0 1 .201-.057c.114-.223.237-.442.37-.655a.433.433 0 0 1 .28-.056.839.839 0 0 1 .046-.36.435.435 0 0 1 .28-.056c-.061-.22.047-.36.327-.416-.094-.176-.012-.295.245-.356.092-.055.092-.105.002-.15a1.31 1.31 0 0 0 .407-.445.297.297 0 0 1 .24-.057 1.87 1.87 0 0 1 .331-.716l.239.004c-.045-.21.064-.328.326-.356-.045-.209.063-.328.325-.355l.005-.301a.433.433 0 0 0 .28-.056l.085-.3c.246-.198.464-.416.649-.65.055-.08.108-.078.16.003l.085-.3a.433.433 0 0 1 .28-.056.837.837 0 0 1 .046-.36.432.432 0 0 1 .28-.055c-.01-.162.005-.322.048-.48a.302.302 0 0 1 .121-.059c.119-.738.132-.57.039-1.31a.3.3 0 0 1-.118-.063 1.478 1.478 0 0 1-.032-.482.43.43 0 0 1-.277-.064.839.839 0 0 1-.034-.362c-.272.003-.376-.1-.314-.306-.239.016-.343-.066-.314-.246l-.239-.004.003-.18c-.239.016-.344-.066-.314-.246-.244.03-.402-.042-.475-.218a5.834 5.834 0 0 0-1.031-.288c-.07-.05-.095-.111-.076-.182-9.031-.169-14.274-.298-23.306-.387-.531.207-1.066.419-1.605.635l-.807.588c-.02.198-.154.296-.404.295.067.226-.04.344-.326.355.01.162-.005.322-.048.48a.305.305 0 0 1-.12.059c-.12.78-.134.647-.042 1.43a.306.306 0 0 1 .118.063l.07.542.081-.058c.169.112.233.254.192.424l.32.005-.005.24a.296.296 0 0 1 .238.065c.113.232.323.376.63.432-.002.056-.002.09-.003.18.243.118.507.212.792.284.128.053.154.114.076.182l.636.07c.066.062.091.133.076.212 5.473.07 10.944.18 16.414.331-.067.096-.174.135-.321.115.068.227-.04.345-.325.356a.464.464 0 0 1-.086.36c-.148.13-.284.269-.406.414a.73.73 0 0 0-.125.299.433.433 0 0 1-.28.055.843.843 0 0 1-.046.36.433.433 0 0 1-.28.056.844.844 0 0 1-.046.36c-.25.303-.507.6-.773.89a2.58 2.58 0 0 0-.166.358.297.297 0 0 1-.24.056c.07.24-.04.398-.327.476l.077.122c-.197.191-.334.41-.41.655a.297.297 0 0 1-.24.056c.01.142-.005.282-.047.42-.07.097-.15.116-.24.057l-.087.42a.434.434 0 0 1-.28.055l-.009.481-.239-.004c.01.142-.005.282-.047.42-.222.133-.331.312-.328.537a.434.434 0 0 1-.28.055c.01.162-.006.322-.049.48a.434.434 0 0 1-.28.056c.01.162-.005.322-.048.48a.798.798 0 0 0-.29.597c-.074 0-.12-.002-.239-.004.01.182-.006.363-.049.541a.434.434 0 0 1-.28.056c.01.162-.006.322-.048.48-.07.097-.15.116-.24.057l-.09.6a.692.692 0 0 0-.25.537c-.058.088-.151.126-.28.116.01.181-.007.362-.05.54-.058.088-.152.127-.281.116.01.202-.007.402-.05.6-.07.098-.15.116-.24.057l-.092.66-.241.117c.003.221-.014.442-.052.66l-.239-.003c.01.221-.008.442-.051.66-.059.088-.153.127-.281.116.009.242-.009.482-.053.722a.432.432 0 0 1-.28.055c.009.282-.01.563-.055.841a.431.431 0 0 1-.28.056c.009.282-.01.562-.054.841a.305.305 0 0 1-.121.059 4.603 4.603 0 0 0-.135.84c-.058.087-.151.126-.28.115a5.8 5.8 0 0 1-.058.962c-.05.118-.13.137-.24.056-.032.38-.066.761-.1 1.142a.433.433 0 0 1-.28.055c.007.422-.014.843-.062 1.263a.303.303 0 0 1-.12.058c-.074.419-.121.84-.142 1.261a.445.445 0 0 1-.163.238l-.079-.061-.111 1.742c-.037.13-.118.17-.24.117l-.125 2.525c-.038.13-.118.169-.242.116-.06.38-.067.761-.02 1.143.112-.077.192-.056.238.064.035.26.045.521.026.782a.43.43 0 0 1 .278.065c.037.14.047.28.032.422a.432.432 0 0 1 .278.065l.075.302c.054-.08.107-.079.16.002.233.427.626.734 1.178.922.002.144.069.185.197.124.23.048.428.132.594.25.144.029.29.052.437.067-.001.057.123-.266.121-.175Zm0 0-.003.181a2.619 2.619 0 0 0-.559.02c-.118.041.654-.928.18-.384.734-.544 1.378.2.382.183Z"/></svg>