<svg xmlns="http://www.w3.org/2000/svg" width="135" height="135" fill="none"><g fill="#fff" fill-rule="evenodd" clip-path="url(#a)" clip-rule="evenodd"><path d="M134.5 78.5v25c-1.644.214-3.144-.12-4.5-1a242.43 242.43 0 0 1-.5-22H4.5a547.15 547.15 0 0 0 1 46.5c41 .667 82 .667 123 0a180.918 180.918 0 0 0 1.5-18.5c1.356-.88 2.856-1.214 4.5-1v22a16.58 16.58 0 0 1-4 2.5c-42.333.667-84.667.667-127 0a16.577 16.577 0 0 1-4-2.5v-51c.974-1.135 2.141-2.135 3.5-3l1-15c1.23-3.232 3.23-5.899 6-8 .19-3.688 1.024-7.188 2.5-10.5 3.227-.775 4.56.559 4 4a94.955 94.955 0 0 1-1.5 8.5c-5.963 5.334-8.13 12-6.5 20h3c.521-12.038 6.521-16.538 18-13.5 4.417 3.43 6.084 7.93 5 13.5h4c1.332-7.099-.501-13.099-5.5-18a20.627 20.627 0 0 1-2-6 675.851 675.851 0 0 1-1.5-24h-12a40.936 40.936 0 0 1-.5 9c-1.396 2.027-3.062 2.36-5 1 .012-7.18.512-14.347 1.5-21.5-5.55-4.799-5.216-9.132 1-13 6-.667 12-.667 18 0 6.205 3.957 6.538 8.457 1 13.5a52.37 52.37 0 0 1 1 13h21c.722-4.99.888-9.99.5-15-2.415-2.532-3.081-5.532-2-9A6.975 6.975 0 0 1 57.5 2a90.5 90.5 0 0 1 19 0c3.792 2.053 4.958 5.22 3.5 9.5-1.975 1.67-2.809 3.836-2.5 6.5.499 3.49.832 6.99 1 10.5h21a52.37 52.37 0 0 1 1-13c-5.538-5.043-5.205-9.543 1-13.5 6-.667 12-.667 18 0 6.216 3.868 6.549 8.201 1 13 1.048 12.5 2.214 25 3.5 37.5 2.77 2.101 4.77 4.768 6 8l1 15c1.359.865 2.526 1.865 3.5 3Zm-119-72h16v3h-16v-3Zm44 0c5.521-.446 10.855.054 16 1.5-5.155 1.61-10.488 1.943-16 1-1.098-.77-1.098-1.603 0-2.5Zm43 0h16v3h-16v-3Zm-84 8h10c-.256 2.293.077 4.46 1 6.5-4 .667-8 .667-12 0 .923-2.04 1.256-4.207 1-6.5Zm43 0h11v7h-11v-7Zm44 0h10c-.256 2.293.077 4.46 1 6.5-4 .667-8 .667-12 0 .923-2.04 1.256-4.207 1-6.5Zm-44 12h11a791.95 791.95 0 0 0 2.5 27l4.052 5.402c1.276 1.701 2.096 3.71 2.26 5.83.25 3.249.312 6.505.188 9.768h-3c.952-8.792-2.882-13.792-11.5-15-8.618 1.208-12.452 6.208-11.5 15h-3a84.96 84.96 0 0 1 .149-9.228c.175-2.475 1.135-4.818 2.624-6.803L59 53.5a791.95 791.95 0 0 0 2.5-27Zm43 0h12a252.07 252.07 0 0 0 2.5 28c5.849 5.382 8.016 12.048 6.5 20h-3c-.521-12.038-6.521-16.538-18-13.5-4.417 3.43-6.084 7.93-5 13.5h-4c-1.332-7.099.501-13.099 5.5-18a20.641 20.641 0 0 0 2-6 673.965 673.965 0 0 0 1.5-24Zm-69 7h20v5c-.5 4-.5 8-.5 8l-.5 4-.5 2-1.787 1.191a6.482 6.482 0 0 0-1.963 2.059c-.498.83-1.048 1.644-1.428 2.535-.22.516-.494 1.231-.822 2.215-.499 3.986-1.666 9.986-1.5 14h-3c.166-4.678 0-9.345-.5-14-1.23-3.232-3.23-5.899-6-8a87.962 87.962 0 0 1-1.5-19Zm43 0h20a87.962 87.962 0 0 1-1.5 19c-2.77 2.101-4.77 4.768-6 8a98.433 98.433 0 0 0-.5 14h-3a72.444 72.444 0 0 0-.5-12c-.606-3.048-2.106-5.548-4.5-7.5a378.699 378.699 0 0 0-2.153-4.898A21.101 21.101 0 0 1 78.5 41.5v-8Zm-57 31c6.43.154 9.096 3.487 8 10h-12c-.75-4.32.583-7.653 4-10Zm44 0c5.953.626 8.62 3.96 8 10h-13c-.425-4.483 1.241-7.817 5-10Zm43 0c6.429.154 9.096 3.487 8 10h-12c-.751-4.32.583-7.653 4-10Z"/><path d="M36.5 95.5c20.336-.167 40.67 0 61 .5 3.415 1.143 3.749 2.81 1 5-21 .667-42 .667-63 0-2.602-2.312-2.268-4.145 1-5.5Z" opacity=".65"/><path d="M34.5 109.5c21.67-.167 43.336 0 65 .5 1.227 1.587.894 2.921-1 4-21 .667-42 .667-63 0-2.047-1.226-2.38-2.726-1-4.5Z" opacity=".777"/></g><defs><clipPath id="a"><path fill="#fff" d="M0 0h135v135H0z"/></clipPath></defs></svg>