<svg xmlns="http://www.w3.org/2000/svg" width="135" height="135" fill="none"><g fill="#fff" fill-rule="evenodd" clip-path="url(#a)" clip-rule="evenodd"><path d="M131.934 50.845c0 .358.207.538.621.538a15.71 15.71 0 0 1 1.863 3.14c.273 1.525.273 3.051 0 4.577-3.556 13.31-7.075 26.5-10.558 39.572-1.457 2.099-3.527 3.535-6.212 4.306l-62.318.18c-3.463.689-5.015 2.573-4.658 5.653.497 1.807 1.774 2.973 3.83 3.5 22.568.03 45.135.119 67.701.269 1.82.563 2.407 1.64 1.76 3.23-.163.321-.404.59-.725.808a86.535 86.535 0 0 1-7.66.359c1.617 1.768 2.445 3.802 2.485 6.101-.98 7.012-5.535 10.541-13.665 10.589-6.563-1.174-10.22-4.674-10.973-10.499.093-2.289.921-4.353 2.484-6.191-5.453-.15-10.905-.12-16.355.089.997 1.186 1.652 2.502 1.966 3.948.891 4.929-1.144 8.728-6.107 11.397-7.08 2.531-12.67 1.035-16.77-4.487l.207-.18a9.77 9.77 0 0 1-.932-1.525 16.033 16.033 0 0 1 0-6.281 12.28 12.28 0 0 1 .932-1.525l-.207-.18c.326-.392.671-.781 1.035-1.167-4.595.639-8.495-.438-11.697-3.23-3.448-3.983-3.448-7.991 0-12.024 1.516-1.544 3.414-2.532 5.693-2.961a17.887 17.887 0 0 1-.931-2.243 82030.343 82030.343 0 0 0-16.046-53.032c-.27-1.22-.96-2.058-2.07-2.512a4.585 4.585 0 0 1-1.656-.36 15.323 15.323 0 0 0-3.313 0c-1.161 2.862-3.439 4.657-6.832 5.385-5.107.12-10.214.12-15.32 0-5.355-1.534-7.598-4.735-6.73-9.602 1.142-2.85 3.385-4.674 6.729-5.473 5.176-.12 10.352-.12 15.528 0 3.168.742 5.307 2.447 6.418 5.115a26.401 26.401 0 0 1 6.832.628 23.078 23.078 0 0 1 3.002 1.705 7.886 7.886 0 0 1 1.967 2.692c.881 2.566 1.71 5.138 2.484 7.716 4.872-.238 9.737-.238 14.597 0 .101-.188.067-.367-.104-.538-4.79-6.089-6.86-12.849-6.211-20.28.78-5.5 2.989-10.524 6.625-15.074a62.617 62.617 0 0 1 3.727-3.769c.414 0 .62-.18.62-.538 10.086-7.52 21.577-9.734 34.473-6.64 13.162 4.11 21.133 12.096 23.912 23.958 1.063 6.186.131 12.138-2.795 17.856a38.243 38.243 0 0 1-3.416 4.756l11.594.18a7.477 7.477 0 0 0 1.863.449 28.645 28.645 0 0 1 3.313 1.615Zm-26.294 0a19.505 19.505 0 0 1-4.244 2.691 2.62 2.62 0 0 1-.932.18c-.066.278-.273.398-.62.359-.562.48-1.252.72-2.071.718-.025.195-.163.315-.414.359-11.77 3.204-22.26 1.32-31.47-5.654-8.04-7.375-10.663-16.049-7.867-26.022 4.168-10.318 12.38-16.48 24.637-18.484 10.642-.946 19.545 1.895 26.708 8.524 7.134 7.568 9.135 16.063 6.004 25.484-1.38 3.29-3.347 6.281-5.901 8.973a16.865 16.865 0 0 1-3.83 2.872ZM8.333 35.41c4.776-.084 9.538.005 14.286.269 1.838 1.087 2.356 2.553 1.553 4.397-.538.698-1.262 1.206-2.174 1.525-4.706.174-9.4.114-14.079-.18-2.123-1.228-2.571-2.813-1.346-4.755a9.411 9.411 0 0 1 1.76-1.256Zm36.853 17.946c6.127.148 12.27.238 18.426.27 1.09.891 2.263 1.699 3.52 2.422.449.481.76 1.02.931 1.615a1206 1206 0 0 0 1.242 10.41c.207 1.552.276 3.107.207 4.665a239.825 239.825 0 0 0-18.53 0 863.803 863.803 0 0 1-5.796-19.382Zm82.814.898c.414 0 .621.179.621.538.389-.02.458.07.207.269.304.197.477.466.518.808a4.757 4.757 0 0 1 0 1.974 570.884 570.884 0 0 1-4.037 14.895 258.42 258.42 0 0 0-19.255 0c-.257-.261-.223-.5.104-.718a377.282 377.282 0 0 1 1.76-16.69c.298-.26.643-.44 1.035-.538-.018-.179.051-.328.207-.449.47-.169.884-.408 1.242-.718 5.521-.12 11.042-.12 16.563 0 .433.12.778.33 1.035.629Zm-25.879 3.948c.136.232.205.5.207.807-.577 4.578-1.129 9.154-1.657 13.729a942.52 942.52 0 0 0-25.776-.18l-1.449-12.92c-.334-.272-.334-.511 0-.719.684.338 1.408.638 2.174.898 8.233 2.297 16.376 2.087 24.43-.628a8.47 8.47 0 0 0 2.071-.987ZM52.432 77.226c5.9.238 11.801.238 17.701 0 .967 7.111 1.899 14.2 2.796 21.266-4.762.09-9.524.12-14.286.09a4.552 4.552 0 0 0-.621-2.244.657.657 0 0 0 .207-.269 403.002 403.002 0 0 1-5.797-18.843Zm22.981 0c8.393.178 16.743.238 25.051.179a333.479 333.479 0 0 0-2.07 19.382 3.157 3.157 0 0 1-.414 1.525l.207.18c-6.763.09-13.526.12-20.29.09a597.307 597.307 0 0 0-2.484-21.356Zm48.653.179a11.6 11.6 0 0 1-.31 2.154 211.64 211.64 0 0 0-3.934 14.895c-.24.919-.585 1.816-1.035 2.692a5.309 5.309 0 0 1-1.967 1.346c-4.486.12-8.971.12-13.457 0 .72-6.72 1.375-13.45 1.967-20.19.201-.34.339-.698.414-1.076 6.092.178 12.199.238 18.322.179Zm-54.657 39.482c5.85.848 8.058 3.75 6.625 8.704-1.86 2.931-4.69 4.068-8.488 3.41-3.68-1.383-5.302-3.806-4.866-7.268.996-2.777 3.17-4.303 6.522-4.577a.407.407 0 0 0 .207-.269Zm36.231 0c5.329.64 7.641 3.273 6.936 7.896-1.104 2.768-3.347 4.264-6.729 4.487-4.31-.34-6.587-2.373-6.832-6.102.095-3.641 2.234-5.645 6.418-6.012a.407.407 0 0 0 .207-.269Z"/><path d="M95.357 46.348c5.813.795 7.941-3.196 7.643-7.348-.097-1.36-1.798-3.652-4.297-4.652-2.5-1-6.646.117-8.501 3.84-.939 4.519 1.5 7.66 5.155 8.16Zm.414-3.763c-1.528-.742-2.046-1.878-1.553-3.41.242-.448.621-.777 1.139-.987 1.657-.54 2.9-.151 3.727 1.166.454 2.24-.65 3.317-3.313 3.231ZM76.357 25.348c5.813.795 7.94-3.196 7.643-7.348-.097-1.36-1.798-3.652-4.297-4.652-2.5-1-6.646.117-8.501 3.84-.939 4.519 1.5 7.66 5.155 8.16Zm.414-3.763c-1.528-.742-2.046-1.878-1.553-3.41.242-.448.621-.777 1.139-.987 1.657-.54 2.9-.151 3.727 1.166.454 2.24-.65 3.317-3.313 3.231ZM72.929 41.412a13.61 13.61 0 0 1-.621-1.615c.097-.515.304-.994.62-1.436a3910.66 3910.66 0 0 0 24.638-21.266c1.584-.48 2.791-.091 3.623 1.166.257.934.05 1.772-.621 2.513A6452.137 6452.137 0 0 0 76.242 41.77l-1.243.18a4.726 4.726 0 0 1-2.07-.54Z"/></g><defs><clipPath id="a"><path fill="#fff" d="M0 0h135v135H0z"/></clipPath></defs></svg>