<svg xmlns="http://www.w3.org/2000/svg" viewBox="6166.5 5158.583 62.189 62.479"><path fill="#fff" fill-rule="evenodd" d="M6218.921 5168.372c-5.658-5.665-13.183-8.786-21.2-8.789-16.518 0-29.963 13.443-29.969 29.967a29.919 29.919 0 0 0 4 14.982l-4.252 15.53 15.887-4.167a29.94 29.94 0 0 0 14.321 3.648h.012c16.517 0 29.962-13.445 29.969-29.968.005-8.009-3.109-15.538-8.768-21.203Zm-21.199 46.11h-.01a24.877 24.877 0 0 1-12.678-3.473l-.91-.54-9.428 2.473 2.516-9.192-.592-.943a24.851 24.851 0 0 1-3.808-13.256c.005-13.734 11.18-24.907 24.919-24.907 6.653.002 12.907 2.597 17.61 7.305 4.703 4.708 7.291 10.966 7.289 17.622-.005 13.736-11.179 24.91-24.908 24.91Z"/><path fill="#fff" fill-rule="evenodd" d="M6211.385 5195.825c-.749-.375-4.43-2.186-5.117-2.436-.686-.25-1.186-.375-1.685.375-.499.75-1.934 2.436-2.371 2.936-.437.5-.874.562-1.622.187-.749-.375-3.162-1.165-6.022-3.717-2.226-1.986-3.729-4.438-4.166-5.187-.437-.75-.047-1.155.328-1.528.337-.336.749-.875 1.123-1.312.374-.437.499-.75.749-1.249.25-.5.125-.937-.062-1.312s-1.685-4.06-2.309-5.56c-.608-1.46-1.225-1.262-1.685-1.285a29.649 29.649 0 0 0-1.435-.026c-.499 0-1.31.187-1.997.937-.686.75-2.621 2.561-2.621 6.247s2.683 7.247 3.058 7.746c.374.5 5.28 8.063 12.792 11.307a42.87 42.87 0 0 0 4.269 1.577c1.794.57 3.426.49 4.717.297 1.439-.215 4.43-1.81 5.054-3.56.624-1.749.624-3.249.437-3.56-.187-.314-.686-.502-1.435-.877Z"/></svg>